# This file uses centimeters as units for non-parametric coordinates.

mtllib bush1.mtl
g default
v -1.153691 0.168993 -25.528578
v -1.937536 -0.618456 -19.176575
v -0.799593 -1.336863 -18.785309
v -0.158296 1.640658 -25.145933
v 0.620610 1.207098 -26.135593
v 1.798378 -0.768778 -21.994421
v -0.946485 0.843847 -25.740250
v 2.187072 1.579321 -19.177870
v -1.794184 -0.411542 -21.935349
v -0.604508 2.717898 -24.953537
v -0.197498 3.675353 -15.891696
v 1.833912 0.526563 -24.388817
v 0.340640 1.419019 -14.288784
v 1.609173 3.335291 -19.099323
v 0.161354 0.102712 -25.338779
v 0.058649 0.689963 -14.517754
v -2.451735 1.329476 -22.458771
v 0.124465 -0.323152 -14.619102
v -1.082295 -0.782751 -16.747637
v -1.691099 3.208138 -17.633686
v 2.276951 0.585796 -20.543957
v 1.588012 -0.248219 -16.818901
v 1.782035 2.493847 -16.856236
v -0.710061 3.719343 -22.191927
v -1.270088 3.864259 -19.474358
v -0.139364 3.932658 -17.824312
v -0.193735 -1.193091 -22.028608
v -2.241803 2.506586 -15.829964
v -2.533940 0.558536 -18.288788
v 0.887313 -1.122629 -20.581577
v -0.421931 -0.962302 -20.824377
v 2.486830 0.530347 -21.894331
v -0.308164 3.464781 -23.833311
v 0.784534 3.600986 -21.952595
v 2.384178 1.700799 -23.245537
v 0.883996 1.468516 -26.030521
v 0.490099 2.211043 -25.598450
v 0.531059 2.504776 -14.379459
v 0.723532 3.391150 -18.451929
v 1.585082 2.344955 -23.199921
v -1.154263 0.231470 -15.434180
v 0.844378 3.550800 -17.102852
v 2.124781 1.166748 -15.906322
v 2.248049 2.099720 -17.447515
v -0.308215 1.787686 -14.243083
v -2.236004 -0.601447 -20.612633
v -2.294124 3.388320 -20.655987
v -1.246295 3.889867 -21.469381
v 2.030181 2.825033 -20.684013
v 0.153757 -0.866871 -23.805292
v 0.096930 -0.640225 -16.516272
v -0.170501 -1.352988 -16.948435
v 0.465948 3.893515 -22.694510
v -1.538002 -0.329146 -15.986328
v 1.608759 -0.025694 -24.051903
v -0.252984 -0.116127 -25.121994
v -2.734244 0.590097 -20.726055
v -2.482308 2.361790 -21.593681
v -0.350671 1.309337 -13.925500
v -1.456988 2.333344 -14.429630
v -1.966995 1.480140 -14.791229
v -1.792713 1.165899 -16.358576
v 0.111057 2.773497 -14.696564
v 1.002165 2.394664 -24.670414
v 2.514814 1.275867 -19.941278
v -2.054577 -0.342228 -22.298733
v -2.503523 2.298765 -19.302654
v -1.521629 2.174860 -25.004082
v 1.297632 -0.328690 -15.891411
v 1.073698 -0.593403 -18.689224
v -2.190148 0.600074 -17.427242
v -1.850720 2.110698 -23.725128
v 0.426845 4.196137 -20.005970
v -1.511232 3.436880 -16.054670
v 1.365112 3.288410 -20.278332
vn -0.922411 -0.247525 -0.296462
vn -0.922411 -0.247525 -0.296462
vn -0.922411 -0.247525 -0.296462
vn -0.892136 0.139105 -0.429818
vn -0.892136 0.139105 -0.429818
vn -0.892136 0.139105 -0.429818
vn 0.892502 0.388813 0.228613
vn 0.892502 0.388814 0.228613
vn 0.892502 0.388814 0.228613
vn 0.086805 -0.982801 0.162995
vn 0.086805 -0.982801 0.162995
vn 0.086805 -0.982801 0.162995
vn -0.289595 -0.888471 0.356025
vn -0.289595 -0.888471 0.356025
vn -0.289595 -0.888471 0.356025
vn 0.734978 -0.020057 0.677794
vn 0.734978 -0.020057 0.677794
vn 0.734978 -0.020057 0.677794
vn 0.947378 -0.202822 -0.247664
vn 0.947378 -0.202822 -0.247664
vn 0.947378 -0.202822 -0.247664
vn -0.563074 -0.813903 0.143208
vn -0.563074 -0.813903 0.143208
vn -0.563074 -0.813903 0.143208
vn -0.497153 -0.852256 0.162784
vn -0.497153 -0.852256 0.162784
vn -0.497153 -0.852256 0.162784
vn 0.653999 -0.742795 0.143319
vn 0.653999 -0.742795 0.143319
vn 0.653999 -0.742795 0.143319
vn 0.790892 -0.505695 0.344619
vn 0.790892 -0.505695 0.344619
vn 0.790892 -0.505695 0.344619
vn 0.085829 -0.995580 -0.038135
vn 0.085829 -0.995580 -0.038135
vn 0.085829 -0.995580 -0.038135
vn -0.529768 -0.068456 -0.845375
vn -0.529768 -0.068456 -0.845375
vn -0.529768 -0.068456 -0.845375
vn -0.697759 0.265300 -0.665394
vn -0.697759 0.265300 -0.665394
vn -0.697759 0.265300 -0.665394
vn -0.801748 -0.092600 -0.590445
vn -0.801748 -0.092600 -0.590445
vn -0.801748 -0.092600 -0.590445
vn -0.193367 0.409555 -0.891557
vn -0.193367 0.409555 -0.891557
vn -0.193367 0.409555 -0.891557
vn -0.215815 -0.957148 -0.193110
vn -0.215815 -0.957148 -0.193110
vn -0.215815 -0.957148 -0.193110
vn 0.056351 -0.754469 -0.653912
vn 0.056351 -0.754469 -0.653912
vn 0.056351 -0.754469 -0.653912
vn 0.356838 0.305480 -0.882807
vn 0.356838 0.305480 -0.882807
vn 0.356838 0.305480 -0.882807
vn 0.984704 0.161589 0.065164
vn 0.984704 0.161589 0.065164
vn 0.984704 0.161589 0.065164
vn 0.490020 -0.428030 0.759388
vn 0.490020 -0.428030 0.759388
vn 0.490020 -0.428030 0.759388
vn 0.731293 -0.601900 0.320822
vn 0.731293 -0.601900 0.320822
vn 0.731293 -0.601900 0.320822
vn -0.227986 0.952162 -0.203493
vn -0.227986 0.952162 -0.203493
vn -0.227986 0.952162 -0.203493
vn -0.436960 -0.865640 -0.244404
vn -0.436960 -0.865640 -0.244404
vn -0.436960 -0.865640 -0.244404
vn 0.118527 -0.330119 -0.936468
vn 0.118527 -0.330119 -0.936468
vn 0.118527 -0.330119 -0.936468
vn 0.450648 0.202678 -0.869389
vn 0.450648 0.202678 -0.869389
vn 0.450648 0.202678 -0.869389
vn -0.656241 0.570940 -0.493331
vn -0.656241 0.570940 -0.493331
vn -0.656241 0.570940 -0.493331
vn -0.609660 0.540316 -0.579977
vn -0.609660 0.540316 -0.579977
vn -0.609660 0.540316 -0.579977
vn -0.162411 0.978987 -0.123320
vn -0.162411 0.978987 -0.123320
vn -0.162411 0.978987 -0.123320
vn 0.426278 -0.837542 -0.341775
vn 0.426278 -0.837542 -0.341775
vn 0.426278 -0.837542 -0.341775
vn 0.555700 0.830531 -0.037642
vn 0.555700 0.830531 -0.037642
vn 0.555700 0.830531 -0.037642
vn 0.050116 0.824813 -0.563181
vn 0.050116 0.824813 -0.563181
vn 0.050116 0.824813 -0.563181
vn -0.909419 0.221109 0.352234
vn -0.909419 0.221109 0.352234
vn -0.909419 0.221109 0.352234
vn -0.913537 -0.192723 -0.358202
vn -0.913537 -0.192723 -0.358202
vn -0.913537 -0.192723 -0.358202
vn 0.660400 0.732375 -0.165828
vn 0.660400 0.732375 -0.165828
vn 0.660400 0.732375 -0.165828
vn -0.214166 -0.954276 -0.208545
vn -0.214166 -0.954276 -0.208545
vn -0.214166 -0.954276 -0.208545
vn 0.016074 0.932513 0.360777
vn 0.016074 0.932513 0.360777
vn 0.016074 0.932513 0.360777
vn 0.102722 0.982460 -0.155631
vn 0.102722 0.982460 -0.155631
vn 0.102722 0.982460 -0.155631
vn 0.069589 0.957489 -0.279950
vn 0.069589 0.957489 -0.279950
vn 0.069589 0.957489 -0.279950
vn -0.111734 -0.484229 0.867777
vn -0.111734 -0.484229 0.867777
vn -0.111734 -0.484229 0.867777
vn 0.169023 -0.972525 0.160085
vn 0.169023 -0.972525 0.160085
vn 0.169023 -0.972525 0.160085
vn 0.940362 0.315201 -0.127933
vn 0.940362 0.315201 -0.127933
vn 0.940362 0.315201 -0.127933
vn 0.820915 0.457058 0.342341
vn 0.820915 0.457058 0.342341
vn 0.820915 0.457058 0.342341
vn -0.504044 0.859327 -0.086587
vn -0.504044 0.859327 -0.086587
vn -0.504044 0.859327 -0.086587
vn -0.640910 0.706055 -0.301199
vn -0.640910 0.706055 -0.301199
vn -0.640910 0.706055 -0.301199
vn 0.904034 0.419321 0.083022
vn 0.904034 0.419321 0.083022
vn 0.904034 0.419321 0.083022
vn 0.830931 -0.494423 -0.255146
vn 0.830931 -0.494423 -0.255146
vn 0.830931 -0.494423 -0.255146
vn 0.472974 -0.425284 0.771641
vn 0.472974 -0.425284 0.771641
vn 0.472974 -0.425284 0.771641
vn -0.457155 -0.855862 -0.241886
vn -0.457155 -0.855862 -0.241886
vn -0.457155 -0.855862 -0.241886
vn -0.294888 0.499991 0.814278
vn -0.294888 0.499991 0.814278
vn -0.294888 0.499992 0.814279
vn 0.598761 0.760562 -0.251058
vn 0.598761 0.760562 -0.251058
vn 0.598762 0.760562 -0.251058
vn -0.907713 0.018857 -0.419168
vn -0.907713 0.018857 -0.419168
vn -0.907713 0.018857 -0.419168
vn -0.931211 -0.262574 -0.252786
vn -0.931211 -0.262574 -0.252786
vn -0.931211 -0.262574 -0.252786
vn -0.213867 0.752420 0.622997
vn -0.213867 0.752420 0.622997
vn -0.213867 0.752420 0.622997
vn -0.413373 0.519740 0.747659
vn -0.413373 0.519740 0.747659
vn -0.413373 0.519740 0.747659
vn 0.884320 0.346577 -0.312829
vn 0.884321 0.346577 -0.312829
vn 0.884321 0.346577 -0.312829
vn 0.662260 -0.417049 -0.622481
vn 0.662260 -0.417049 -0.622481
vn 0.662260 -0.417049 -0.622481
vn -0.191846 -0.981018 0.028254
vn -0.191846 -0.981018 0.028254
vn -0.191846 -0.981018 0.028254
vn -0.489339 0.850839 0.191363
vn -0.489339 0.850839 0.191363
vn -0.489339 0.850839 0.191363
vn 0.165014 -0.834006 -0.526502
vn 0.165014 -0.834006 -0.526502
vn 0.165014 -0.834006 -0.526502
vn 0.480653 -0.635694 -0.604041
vn 0.480653 -0.635694 -0.604041
vn 0.480653 -0.635694 -0.604041
vn -0.708573 0.599158 0.372740
vn -0.708573 0.599158 0.372740
vn -0.708573 0.599158 0.372740
vn 0.867752 -0.442406 -0.226459
vn 0.867752 -0.442406 -0.226458
vn 0.867752 -0.442406 -0.226458
vn 0.370450 -0.785916 -0.495078
vn 0.370450 -0.785916 -0.495078
vn 0.370450 -0.785916 -0.495078
vn 0.466147 -0.007870 0.884672
vn 0.466147 -0.007870 0.884672
vn 0.466147 -0.007870 0.884672
vn -0.337338 0.541289 0.770201
vn -0.337338 0.541289 0.770201
vn -0.337338 0.541289 0.770201
vn 0.382588 0.804706 0.453954
vn 0.382588 0.804706 0.453954
vn 0.382588 0.804706 0.453954
vn -0.761032 -0.644777 -0.071368
vn -0.761032 -0.644777 -0.071368
vn -0.761032 -0.644777 -0.071368
vn 0.676995 0.729354 -0.098593
vn 0.676995 0.729354 -0.098593
vn 0.676995 0.729354 -0.098593
vn 0.634615 0.657684 0.405851
vn 0.634615 0.657684 0.405851
vn 0.634615 0.657684 0.405851
vn -0.905566 -0.393696 -0.157967
vn -0.905566 -0.393696 -0.157967
vn -0.905566 -0.393696 -0.157967
vn 0.868049 -0.471896 0.154291
vn 0.868049 -0.471896 0.154291
vn 0.868049 -0.471896 0.154291
vn -0.988714 0.077939 -0.127947
vn -0.988714 0.077939 -0.127947
vn -0.988714 0.077939 -0.127947
vn -0.926703 0.224871 -0.301090
vn -0.926703 0.224871 -0.301090
vn -0.926703 0.224871 -0.301090
vn -0.641424 0.716412 -0.274462
vn -0.641424 0.716412 -0.274462
vn -0.641424 0.716412 -0.274462
vn 0.333939 0.861498 0.382500
vn 0.333939 0.861498 0.382500
vn 0.333939 0.861498 0.382500
vn -0.923469 -0.164180 0.346770
vn -0.923469 -0.164180 0.346770
vn -0.923469 -0.164180 0.346770
vn -0.786459 0.617642 0.000112
vn -0.786459 0.617642 0.000112
vn -0.786459 0.617642 0.000112
vn -0.959366 0.165482 -0.228545
vn -0.959366 0.165482 -0.228545
vn -0.959366 0.165482 -0.228545
vn 0.683273 0.685420 -0.251670
vn 0.683273 0.685419 -0.251670
vn 0.683273 0.685419 -0.251670
vn 0.913829 -0.398170 0.079863
vn 0.913829 -0.398170 0.079863
vn 0.913829 -0.398170 0.079863
vn 0.853297 -0.469712 0.226397
vn 0.853297 -0.469712 0.226397
vn 0.853297 -0.469712 0.226397
vn 0.997092 -0.064373 0.040781
vn 0.997092 -0.064373 0.040781
vn 0.997092 -0.064373 0.040781
vn 0.790375 0.604214 -0.101160
vn 0.790375 0.604214 -0.101160
vn 0.790375 0.604214 -0.101160
vn 0.736084 0.620353 -0.270820
vn 0.736084 0.620353 -0.270820
vn 0.736084 0.620353 -0.270820
vn 0.319255 0.794731 -0.516216
vn 0.319255 0.794731 -0.516216
vn 0.319255 0.794731 -0.516216
vn -0.821851 0.281306 0.495407
vn -0.821851 0.281306 0.495407
vn -0.821851 0.281306 0.495407
vn 0.413142 0.887349 0.204755
vn 0.413142 0.887350 0.204755
vn 0.413142 0.887349 0.204755
vn -0.982939 0.183887 -0.004044
vn -0.982939 0.183887 -0.004044
vn -0.982939 0.183887 -0.004044
vn 0.677537 0.599866 0.425564
vn 0.677537 0.599866 0.425564
vn 0.677537 0.599866 0.425564
vn 0.927075 0.314248 -0.204404
vn 0.927075 0.314248 -0.204404
vn 0.927075 0.314248 -0.204404
vn 0.597365 0.563048 0.571080
vn 0.597365 0.563048 0.571080
vn 0.597365 0.563048 0.571080
vn 0.548744 -0.805816 0.222578
vn 0.548744 -0.805816 0.222578
vn 0.548744 -0.805816 0.222578
vn -0.982737 -0.133733 0.127842
vn -0.982737 -0.133733 0.127842
vn -0.982737 -0.133733 0.127842
vn -0.833722 -0.551892 0.017943
vn -0.833722 -0.551892 0.017943
vn -0.833722 -0.551892 0.017943
vn -0.103273 0.458762 -0.882537
vn -0.103273 0.458762 -0.882537
vn -0.103273 0.458762 -0.882537
vn -0.235353 0.964310 0.121307
vn -0.235353 0.964310 0.121307
vn -0.235353 0.964310 0.121307
vn -0.630523 -0.117708 0.767194
vn -0.630523 -0.117708 0.767194
vn -0.630523 -0.117708 0.767194
vn 0.208607 -0.968356 -0.137001
vn 0.208607 -0.968356 -0.137001
vn 0.208608 -0.968356 -0.137001
vn -0.650920 0.617752 0.441232
vn -0.650920 0.617752 0.441232
vn -0.650920 0.617752 0.441232
vn -0.782925 -0.575305 0.236757
vn -0.782925 -0.575305 0.236757
vn -0.782925 -0.575305 0.236757
vn -0.782512 0.621187 0.042446
vn -0.782512 0.621187 0.042446
vn -0.782512 0.621187 0.042446
vn 0.770799 -0.629175 0.100039
vn 0.770799 -0.629175 0.100039
vn 0.770799 -0.629175 0.100039
vn -0.027818 0.885422 0.463956
vn -0.027818 0.885422 0.463956
vn -0.027818 0.885422 0.463956
vn -0.032149 -0.985770 -0.164995
vn -0.032149 -0.985770 -0.164995
vn -0.032149 -0.985770 -0.164995
vn 0.897082 0.071589 -0.436026
vn 0.897082 0.071589 -0.436026
vn 0.897082 0.071589 -0.436026
vn 0.355464 0.891593 -0.280547
vn 0.355464 0.891594 -0.280547
vn 0.355464 0.891594 -0.280547
vn -0.645979 0.714401 -0.268965
vn -0.645979 0.714401 -0.268965
vn -0.645979 0.714401 -0.268965
vn 0.393036 0.540267 -0.744066
vn 0.393036 0.540267 -0.744066
vn 0.393036 0.540267 -0.744066
vn -0.490187 -0.813669 -0.312506
vn -0.490187 -0.813669 -0.312506
vn -0.490187 -0.813669 -0.312506
vn -0.432796 -0.896999 0.089896
vn -0.432796 -0.896999 0.089896
vn -0.432796 -0.896999 0.089896
vn 0.291813 0.795771 0.530654
vn 0.291813 0.795771 0.530654
vn 0.291813 0.795771 0.530654
vn 0.418061 0.819130 -0.392748
vn 0.418061 0.819130 -0.392748
vn 0.418061 0.819130 -0.392748
vn -0.934261 -0.246616 -0.257561
vn -0.934261 -0.246616 -0.257561
vn -0.934261 -0.246616 -0.257561
vn 0.878055 0.340208 -0.336568
vn 0.878055 0.340208 -0.336568
vn 0.878055 0.340208 -0.336568
vn 0.208873 -0.971881 -0.108720
vn 0.208873 -0.971881 -0.108720
vn 0.208873 -0.971881 -0.108720
vn -0.148972 -0.976004 0.158820
vn -0.148972 -0.976004 0.158820
vn -0.148972 -0.976004 0.158820
vn 0.635388 0.611471 -0.471577
vn 0.635388 0.611471 -0.471577
vn 0.635388 0.611471 -0.471577
vn 0.886160 -0.117991 0.448105
vn 0.886160 -0.117991 0.448105
vn 0.886160 -0.117991 0.448105
vn -0.188803 0.981960 0.010352
vn -0.188803 0.981960 0.010352
vn -0.188803 0.981960 0.010352
vn 0.967893 0.229265 -0.103059
vn 0.967893 0.229265 -0.103059
vn 0.967893 0.229265 -0.103059
vn 0.580496 -0.639881 0.503563
vn 0.580496 -0.639881 0.503563
vn 0.580496 -0.639881 0.503563
vn -0.400644 -0.488933 0.774873
vn -0.400644 -0.488933 0.774874
vn -0.400644 -0.488933 0.774874
vn -0.201222 -0.743168 0.638131
vn -0.201222 -0.743168 0.638131
vn -0.201222 -0.743168 0.638131
vn 0.115521 0.934378 0.337036
vn 0.115521 0.934378 0.337036
vn 0.115521 0.934378 0.337036
vn 0.663361 -0.746972 -0.044555
vn 0.663361 -0.746972 -0.044555
vn 0.663361 -0.746972 -0.044555
vn 0.608250 -0.329231 0.722246
vn 0.608250 -0.329231 0.722246
vn 0.608250 -0.329231 0.722246
vn 0.646159 0.763203 0.000541
vn 0.646159 0.763203 0.000541
vn 0.646159 0.763203 0.000541
vn 0.756703 0.637868 -0.143268
vn 0.756703 0.637868 -0.143268
vn 0.756703 0.637868 -0.143268
vn 0.272205 -0.956846 0.101742
vn 0.272205 -0.956846 0.101742
vn 0.272205 -0.956846 0.101742
vn 0.253385 -0.967355 -0.004600
vn 0.253385 -0.967355 -0.004600
vn 0.253385 -0.967355 -0.004600
vn -0.044303 -0.986690 -0.156460
vn -0.044303 -0.986690 -0.156460
vn -0.044303 -0.986690 -0.156460
vn -0.912754 -0.364018 0.185394
vn -0.912754 -0.364018 0.185394
vn -0.912754 -0.364018 0.185394
vn 0.982016 0.117465 0.147804
vn 0.982016 0.117465 0.147804
vn 0.982016 0.117465 0.147804
vn -0.427623 0.903934 0.006503
vn -0.427623 0.903934 0.006503
vn -0.427623 0.903934 0.006503
vn -0.807895 -0.477495 0.345405
vn -0.807895 -0.477495 0.345405
vn -0.807895 -0.477495 0.345405
vn -0.923942 -0.063487 0.377227
vn -0.923942 -0.063487 0.377227
vn -0.923942 -0.063487 0.377227
vn 0.538937 -0.587807 -0.603350
vn 0.538937 -0.587807 -0.603350
vn 0.538937 -0.587807 -0.603350
vn -0.919392 0.202611 0.337146
vn -0.919392 0.202611 0.337147
vn -0.919392 0.202611 0.337146
vn -0.083512 -0.977245 -0.194980
vn -0.083512 -0.977246 -0.194980
vn -0.083512 -0.977246 -0.194980
vn -0.821991 0.001755 0.569497
vn -0.821992 0.001755 0.569497
vn -0.821992 0.001755 0.569497
vn 0.448402 0.882067 -0.144550
vn 0.448402 0.882067 -0.144550
vn 0.448402 0.882067 -0.144550
vn -0.990389 0.138204 -0.005369
vn -0.990389 0.138204 -0.005369
vn -0.990389 0.138204 -0.005369
vn -0.421343 -0.616652 0.664989
vn -0.421343 -0.616652 0.664989
vn -0.421343 -0.616652 0.664989
vn 0.122095 0.541430 0.831833
vn 0.122095 0.541430 0.831833
vn 0.122095 0.541430 0.831833
vn -0.477421 -0.085256 0.874529
vn -0.477421 -0.085256 0.874529
vn -0.477421 -0.085256 0.874529
s off
g bush1 bushes
usemtl standardSurface2SG
f 66//1 17//2 1//3
f 17//4 7//5 1//6
f 8//7 65//8 49//9
f 18//10 19//11 51//12
f 54//13 19//14 18//15
f 16//16 18//17 69//18
f 12//19 35//20 32//21
f 3//22 19//23 2//24
f 52//25 19//26 3//27
f 30//28 70//29 52//30
f 51//31 52//32 70//33
f 30//34 52//35 3//36
f 4//37 10//38 37//39
f 37//40 5//41 4//42
f 4//43 5//44 15//45
f 10//46 7//47 68//48
f 1//49 56//50 9//51
f 56//52 1//53 15//54
f 4//55 7//56 10//57
f 49//58 32//59 35//60
f 13//61 16//62 69//63
f 21//64 30//65 6//66
f 24//67 53//68 33//69
f 27//70 9//71 50//72
f 7//73 15//74 1//75
f 7//76 4//77 15//78
f 47//79 48//80 58//81
f 48//82 24//83 58//84
f 74//85 11//86 20//87
f 50//88 55//89 6//90
f 75//91 49//92 34//93
f 37//94 10//95 33//96
f 29//97 71//98 67//99
f 2//100 29//101 67//102
f 14//103 75//104 73//105
f 31//106 46//107 9//108
f 53//109 24//110 34//111
f 24//112 48//113 34//114
f 34//115 48//116 73//117
f 52//118 51//119 19//120
f 51//121 69//122 18//123
f 8//124 14//125 44//126
f 43//127 44//128 23//129
f 10//130 68//131 72//132
f 72//133 33//134 10//135
f 63//136 26//137 11//138
f 55//139 12//140 6//141
f 59//142 16//143 13//144
f 31//145 3//146 2//147
f 38//148 63//149 45//150
f 35//151 40//152 49//153
f 7//154 17//155 72//156
f 7//157 72//158 68//159
f 74//160 63//161 11//162
f 74//163 45//164 63//165
f 64//166 12//167 36//168
f 36//169 12//170 5//171
f 46//172 31//173 2//174
f 20//175 11//176 25//177
f 50//178 56//179 15//180
f 15//181 5//182 55//183
f 67//184 25//185 47//186
f 6//187 12//188 32//189
f 15//190 55//191 50//192
f 59//193 13//194 38//195
f 38//196 45//197 59//198
f 14//199 39//200 44//201
f 19//202 54//203 71//204
f 75//205 34//206 73//207
f 42//208 63//209 23//210
f 66//211 46//212 57//213
f 6//214 32//215 21//216
f 58//217 17//218 57//219
f 17//220 58//221 72//222
f 58//223 24//224 72//225
f 39//226 14//227 73//228
f 57//229 2//230 67//231
f 20//232 28//233 74//234
f 20//235 71//236 28//237
f 40//238 34//239 49//240
f 22//241 21//242 43//243
f 22//244 43//245 69//246
f 44//247 43//248 21//249
f 40//250 53//251 34//252
f 64//253 53//254 40//255
f 64//256 33//257 53//258
f 61//259 60//260 28//261
f 23//262 63//263 38//264
f 47//265 58//266 67//267
f 8//268 49//269 75//270
f 75//271 14//272 8//273
f 23//274 13//275 43//276
f 71//277 62//278 61//279
f 71//280 61//281 28//282
f 41//283 61//284 62//285
f 5//286 37//287 36//288
f 11//289 26//290 25//291
f 18//292 16//293 54//294
f 50//295 6//296 27//297
f 28//298 60//299 74//300
f 2//301 19//302 29//303
f 25//304 67//305 20//306
f 30//307 21//308 70//309
f 73//310 25//311 39//312
f 9//313 66//314 1//315
f 65//316 21//317 49//318
f 26//319 39//320 25//321
f 72//322 24//323 33//324
f 40//325 35//326 12//327
f 50//328 9//329 56//330
f 9//331 27//332 31//333
f 45//334 74//335 60//336
f 33//337 64//338 37//339
f 66//340 57//341 17//342
f 12//343 64//344 40//345
f 6//346 30//347 27//348
f 31//349 27//350 30//351
f 37//352 64//353 36//354
f 38//355 13//356 23//357
f 48//358 25//359 73//360
f 21//361 8//362 44//363
f 21//364 65//365 8//366
f 54//367 16//368 41//369
f 16//370 59//371 41//372
f 26//373 63//374 42//375
f 22//376 70//377 21//378
f 13//379 69//380 43//381
f 39//382 23//383 44//384
f 39//385 42//386 23//387
f 70//388 22//389 51//390
f 22//391 69//392 51//393
f 9//394 46//395 66//396
f 2//397 57//398 46//399
f 21//400 32//401 49//402
f 47//403 25//404 48//405
f 71//406 29//407 19//408
f 54//409 62//410 71//411
f 5//412 12//413 55//414
f 71//415 20//416 67//417
f 31//418 30//419 3//420
f 41//421 62//422 54//423
f 26//424 42//425 39//426
f 67//427 58//428 57//429
f 61//430 41//431 59//432
f 59//433 45//434 60//435
f 59//436 60//437 61//438
